<svg width="200" height="20" viewBox="0 0 200 20" fill="none" xmlns="http://www.w3.org/2000/svg">
<path d="M119.508 8.11373H112.469L113.763 5.98095H120.803L119.508 8.11373ZM123.083 3.14547H114.577L108.45 13.2669H106.305L113.726 1.0127H124.365L123.083 3.14547ZM121.333 13.2669H119.188L126.609 1.0127H128.767L121.333 13.2669ZM141.489 3.14547H136.644L130.505 13.2669H128.384L134.512 3.14547H129.63L130.924 1.0127H142.784L141.489 3.14547ZM149.774 12.2067C149.305 12.9957 148.788 13.3902 148.245 13.3902C147.851 13.3902 147.555 13.1436 147.358 12.6505L144.238 4.76046L139.085 13.2669H136.953L143.733 2.07292C143.906 1.77704 144.14 1.53048 144.423 1.3209C144.707 1.11132 144.991 1.0127 145.274 1.0127C145.669 1.0127 145.952 1.22227 146.125 1.64143L149.256 9.51914L154.409 1.0127H156.554L149.774 12.2067ZM165.246 8.11373H158.206L159.501 5.98095H166.54L165.246 8.11373ZM162.694 13.2669H152.042L159.464 1.0127H170.115L168.821 3.14547H160.327L155.482 11.1218H163.988L162.694 13.2669ZM180.557 9.48216C179.855 10.641 178.881 11.5656 177.623 12.2807C176.427 12.934 175.232 13.2669 174.048 13.2669H164.642L165.936 11.1218H175.342C175.922 11.1218 176.514 10.9985 177.105 10.7396C177.808 10.4068 178.314 9.97528 178.646 9.42052C178.979 8.87808 178.979 8.44659 178.659 8.15071C178.388 7.90415 177.956 7.76854 177.377 7.76854H171.558C170.485 7.76854 169.77 7.48499 169.4 6.89324C169.018 6.2645 169.141 5.42618 169.77 4.39062C170.399 3.35505 171.274 2.52906 172.433 1.888C173.518 1.30857 174.59 1.0127 175.651 1.0127H184.946L183.664 3.14547H174.369C173.949 3.14547 173.543 3.25642 173.111 3.49066C172.68 3.71257 172.359 4.02077 172.125 4.40295C171.878 4.79745 171.841 5.10565 172.002 5.31523C172.162 5.53714 172.445 5.63576 172.852 5.63576H178.659C179.855 5.63576 180.644 5.98095 181.026 6.659C181.42 7.37404 181.272 8.31098 180.557 9.48216ZM195.61 9.48216C194.907 10.641 193.933 11.5656 192.676 12.2807C191.48 12.934 190.284 13.2669 189.101 13.2669H179.694L180.989 11.1218H190.395C190.975 11.1218 191.566 10.9985 192.158 10.7396C192.861 10.4068 193.366 9.97528 193.699 9.42052C194.032 8.87808 194.032 8.44659 193.711 8.15071C193.44 7.90415 193.009 7.76854 192.429 7.76854H186.61C185.538 7.76854 184.823 7.48499 184.453 6.89324C184.071 6.2645 184.194 5.42618 184.823 4.39062C185.452 3.35505 186.327 2.52906 187.486 1.888C188.571 1.30857 189.643 1.0127 190.703 1.0127H199.999L198.717 3.14547H189.421C189.002 3.14547 188.595 3.25642 188.164 3.49066C187.732 3.71257 187.412 4.02077 187.178 4.40295C186.931 4.79745 186.894 5.10565 187.054 5.31523C187.215 5.53714 187.498 5.63576 187.905 5.63576H193.711C194.907 5.63576 195.696 5.98095 196.078 6.659C196.473 7.37404 196.325 8.31098 195.61 9.48216Z" fill="#AF4642"/>
<path d="M48.685 17.5817C48.685 18.0501 48.5248 18.4446 48.2289 18.7528C47.9207 19.0734 47.5262 19.2213 47.0577 19.2213H45.2578V16.0037H47.0577C47.5385 16.0037 47.9207 16.1516 48.2289 16.4475C48.5371 16.731 48.685 17.1132 48.685 17.5817ZM48.118 17.631C48.118 17.3228 48.0193 17.0639 47.8221 16.8666C47.6248 16.6694 47.3659 16.5708 47.0577 16.5708H45.8126V18.6665H47.0577C47.3659 18.6665 47.6248 18.5679 47.8221 18.3707C48.0193 18.1858 48.118 17.9392 48.118 17.631Z" fill="white"/>
<path d="M52.8015 19.2213H52.2344V16.0037H52.8015V19.2213ZM60.0135 18.2351C60.0135 18.5309 59.9025 18.7775 59.6806 18.9624C59.4833 19.135 59.2245 19.2213 58.9039 19.2213H56.4506V18.6665H58.9039C59.0642 18.6665 59.1998 18.6296 59.3108 18.5556C59.434 18.4693 59.4957 18.3583 59.4957 18.2104C59.4957 18.0748 59.434 17.9638 59.2984 17.8775C59.1875 17.8159 59.0642 17.7789 58.9039 17.7789H57.3876C57.1163 17.7789 56.8821 17.7049 56.6972 17.557C56.4876 17.3844 56.389 17.1625 56.389 16.8913C56.389 16.6201 56.4876 16.4105 56.6972 16.2379C56.8821 16.09 57.1163 16.0037 57.3876 16.0037H59.8162V16.5708H57.3876C57.2889 16.5708 57.1903 16.5954 57.1163 16.6571C57.0424 16.7187 57.0054 16.7927 57.0054 16.9036C57.0054 17.0022 57.0424 17.0762 57.1163 17.1379C57.1903 17.1995 57.2889 17.2242 57.3876 17.2242H58.9039C59.2245 17.2242 59.4833 17.3104 59.6806 17.4954C59.9025 17.6803 60.0135 17.9269 60.0135 18.2351ZM66.3995 16.5708H65.142V19.2213H64.5872V16.5708H63.3174V16.0037H66.3995V16.5708ZM73.5745 19.2213H72.7361L71.8362 18.3214H70.628V17.7666H72.1321C72.3416 17.7666 72.5142 17.7173 72.6622 17.631C72.8224 17.52 72.8964 17.3721 72.8964 17.1748C72.8964 16.768 72.6498 16.5708 72.1321 16.5708H70.2952V19.2213H69.7404V16.0037H72.0458C72.4649 16.0037 72.7978 16.1023 73.0443 16.2749C73.3402 16.4845 73.4882 16.7803 73.4882 17.1748C73.4882 17.4461 73.4019 17.6803 73.2293 17.8775C73.0813 18.0501 72.8594 18.1857 72.5882 18.2474L73.5745 19.2213ZM77.7537 19.2213H77.1866V16.0037H77.7537V19.2213ZM85.126 18.2844C85.126 18.42 85.089 18.5556 85.0273 18.6789C84.8178 19.0364 84.4233 19.2213 83.8438 19.2213H81.5385V16.0037H83.8438C84.3986 16.0037 84.7808 16.1763 85.0027 16.5214C85.089 16.6571 85.126 16.805 85.126 16.9653C85.126 17.2242 85.015 17.4461 84.7931 17.631C85.015 17.8036 85.126 18.0255 85.126 18.2844ZM84.5835 16.9529C84.5835 16.8173 84.5095 16.7187 84.3493 16.6447C84.226 16.5954 84.0904 16.5584 83.9301 16.5584H82.1056V18.6542H83.9301C84.0904 18.6542 84.226 18.6296 84.337 18.5926C84.5095 18.5186 84.5835 18.42 84.5835 18.2967C84.5835 18.1611 84.5095 18.0625 84.337 17.9885C84.2137 17.9392 84.0781 17.9145 83.9301 17.9145H82.4261V17.3598H83.9301C84.0904 17.3598 84.226 17.3228 84.3493 17.2735C84.5095 17.1995 84.5835 17.0885 84.5835 16.9529ZM92.3379 17.7789C92.3379 18.2967 92.1777 18.6789 91.8695 18.9131C91.5859 19.1227 91.1914 19.2213 90.649 19.2213H90.4641C89.9216 19.2213 89.5148 19.1227 89.2436 18.9131C88.9354 18.6789 88.7751 18.2967 88.7751 17.7789V16.0037H89.3422V17.7789C89.3422 18.1611 89.4778 18.42 89.7367 18.5433C89.9093 18.6296 90.2175 18.6665 90.649 18.6665C91.0188 18.6665 91.2777 18.6049 91.4503 18.494C91.6599 18.3583 91.7708 18.1241 91.7708 17.7789V16.0037H92.3379V17.7789ZM98.9212 16.5708H97.6514V19.2213H97.0966V16.5708H95.8268V16.0037H98.9212V16.5708ZM102.965 19.2213H102.398V16.0037H102.965V19.2213ZM110.793 17.5817C110.793 18.0501 110.645 18.4446 110.337 18.7528C110.029 19.0734 109.647 19.2213 109.178 19.2213H108.278C107.81 19.2213 107.428 19.0734 107.119 18.7528C106.811 18.4446 106.663 18.0501 106.663 17.5817C106.663 17.1132 106.811 16.731 107.107 16.4475C107.415 16.1516 107.81 16.0037 108.278 16.0037H109.178C109.647 16.0037 110.041 16.1516 110.349 16.4475C110.645 16.731 110.793 17.1132 110.793 17.5817ZM110.238 17.631C110.238 17.3228 110.14 17.0639 109.943 16.8666C109.745 16.6694 109.486 16.5708 109.178 16.5708H108.278C107.97 16.5708 107.711 16.6694 107.514 16.8666C107.317 17.0639 107.218 17.3228 107.218 17.631C107.218 17.9392 107.317 18.1857 107.514 18.3707C107.711 18.5679 107.97 18.6665 108.278 18.6665H109.178C109.486 18.6665 109.745 18.5679 109.943 18.3707C110.14 18.1857 110.238 17.9392 110.238 17.631ZM117.475 18.9501C117.475 19.1473 117.413 19.2583 117.266 19.2583C117.167 19.2583 117.044 19.1967 116.92 19.061L114.862 16.9899V19.2213H114.294V16.2872C114.294 16.2132 114.319 16.1516 114.356 16.09C114.405 16.0406 114.455 16.0037 114.541 16.0037C114.64 16.0037 114.751 16.0653 114.862 16.1763L116.92 18.2351V16.0037H117.475V18.9501ZM121.802 18.9501C121.802 19.0364 121.778 19.1104 121.728 19.1597C121.667 19.209 121.605 19.2336 121.519 19.2336C121.432 19.2336 121.371 19.209 121.309 19.1597C121.26 19.1104 121.235 19.0364 121.235 18.9501C121.235 18.8638 121.26 18.8022 121.309 18.7528C121.371 18.6912 121.432 18.6665 121.519 18.6665C121.605 18.6665 121.667 18.6912 121.728 18.7528C121.778 18.8022 121.802 18.8638 121.802 18.9501ZM129.347 19.2213H128.509L127.609 18.3214H126.401V17.7666H127.917C128.114 17.7666 128.287 17.7173 128.435 17.631C128.595 17.52 128.669 17.3721 128.669 17.1748C128.669 16.768 128.423 16.5708 127.917 16.5708H126.08V19.2213H125.513V16.0037H127.818C128.238 16.0037 128.57 16.1023 128.829 16.2749C129.113 16.4845 129.261 16.7803 129.261 17.1748C129.261 17.4461 129.175 17.6803 129.002 17.8775C128.854 18.0501 128.632 18.1857 128.373 18.2474L129.347 19.2213ZM135.499 17.8775H133.662V17.3104H135.499V17.8775ZM135.647 19.2213H132.873V16.0037H135.647V16.5708H133.428V18.6665H135.647V19.2213ZM142.181 16.5708H140.911V19.2213H140.356V16.5708H139.086V16.0037H142.181V16.5708ZM149.701 19.2213H148.986L148.443 18.3214H146.915L147.26 17.7666H148.111L147.556 16.842L146.101 19.2213H145.386L147.124 16.3119C147.174 16.2379 147.235 16.1763 147.309 16.1023C147.408 16.0406 147.494 16.0037 147.568 16.0037C147.642 16.0037 147.728 16.0283 147.815 16.1023C147.889 16.1639 147.95 16.2379 148 16.3119L149.701 19.2213ZM153.634 19.2213H153.079V16.0037H153.634V19.2213ZM160.032 19.2213H157.258V16.0037H157.825V18.6665H160.032V19.2213ZM164.026 18.9501C164.026 19.0364 164.002 19.1104 163.94 19.1597C163.891 19.209 163.817 19.2336 163.73 19.2336C163.656 19.2336 163.582 19.209 163.533 19.1597C163.472 19.1104 163.447 19.0364 163.447 18.9501C163.447 18.8638 163.472 18.8022 163.533 18.7528C163.582 18.6912 163.656 18.6665 163.73 18.6665C163.817 18.6665 163.891 18.6912 163.94 18.7528C164.002 18.8022 164.026 18.8638 164.026 18.9501ZM171.152 19.2213H169.34C168.871 19.2213 168.477 19.0734 168.181 18.7528C167.873 18.4446 167.712 18.0501 167.712 17.5817C167.712 17.1132 167.873 16.731 168.169 16.4475C168.477 16.1516 168.859 16.0037 169.34 16.0037H171.152V16.5708H169.34C169.032 16.5708 168.773 16.6694 168.575 16.8666C168.378 17.0639 168.28 17.3228 168.28 17.631C168.28 17.9392 168.378 18.1857 168.575 18.3707C168.773 18.5679 169.032 18.6665 169.34 18.6665H171.152V19.2213ZM177.328 19.2213H174.555V16.0037H175.109V18.6665H177.328V19.2213ZM184.368 17.7789C184.368 18.2967 184.208 18.6789 183.899 18.9131C183.628 19.1227 183.221 19.2213 182.691 19.2213H182.494C181.951 19.2213 181.557 19.1227 181.273 18.9131C180.965 18.6789 180.817 18.2967 180.817 17.7789V16.0037H181.372V17.7789C181.372 18.1611 181.508 18.42 181.779 18.5433C181.951 18.6296 182.247 18.6665 182.691 18.6665C183.049 18.6665 183.32 18.6049 183.493 18.494C183.702 18.3583 183.801 18.1241 183.801 17.7789V16.0037H184.368V17.7789ZM191.666 18.2844C191.666 18.42 191.629 18.5556 191.567 18.6789C191.358 19.0364 190.963 19.2213 190.384 19.2213H188.079V16.0037H190.384C190.939 16.0037 191.321 16.1763 191.543 16.5214C191.629 16.6571 191.666 16.805 191.666 16.9653C191.666 17.2242 191.555 17.4461 191.333 17.631C191.555 17.8036 191.666 18.0255 191.666 18.2844ZM191.124 16.9529C191.124 16.8173 191.05 16.7187 190.889 16.6447C190.766 16.5954 190.631 16.5584 190.47 16.5584H188.646V18.6542H190.47C190.631 18.6542 190.766 18.6296 190.877 18.5926C191.05 18.5186 191.124 18.42 191.124 18.2967C191.124 18.1611 191.05 18.0625 190.877 17.9885C190.754 17.9392 190.618 17.9145 190.47 17.9145H188.966V17.3598H190.47C190.631 17.3598 190.766 17.3228 190.889 17.2735C191.05 17.1995 191.124 17.0885 191.124 16.9529ZM198.705 18.2351C198.705 18.5309 198.595 18.7775 198.373 18.9624C198.175 19.135 197.916 19.2213 197.596 19.2213H195.143V18.6665H197.596C197.756 18.6665 197.892 18.6296 198.003 18.5556C198.126 18.4693 198.2 18.3583 198.2 18.2104C198.2 18.0748 198.126 17.9638 197.99 17.8775C197.892 17.8159 197.756 17.7789 197.596 17.7789H196.08C195.808 17.7789 195.574 17.7049 195.389 17.557C195.18 17.3844 195.081 17.1625 195.081 16.8913C195.081 16.6201 195.18 16.4105 195.389 16.2379C195.574 16.09 195.808 16.0037 196.08 16.0037H198.508V16.5708H196.08C195.981 16.5708 195.882 16.5954 195.808 16.6571C195.734 16.7187 195.697 16.7927 195.697 16.9036C195.697 17.0022 195.734 17.0762 195.808 17.1379C195.882 17.1995 195.981 17.2242 196.08 17.2242H197.596C197.916 17.2242 198.175 17.3104 198.373 17.4954C198.595 17.6803 198.705 17.9269 198.705 18.2351Z" fill="white"/>
<path d="M0 0.852539H9.30777L20.6127 19.2832H11.2926L0 0.852539Z" fill="white"/>
<path d="M10.9492 0.852539H20.2693L31.5743 19.2832H22.2542L10.9492 0.852539Z" fill="white"/>
<path d="M21.8711 0.852539H42.6687L39.0812 6.47419H25.3107L21.8711 0.852539Z" fill="#B44843"/>
<path d="M34.4562 13.7232H29.6728L26.0977 7.87964H38.1793L34.4562 13.7232Z" fill="#B44843"/>
<path d="M51.9618 12.934L44.5156 0.729125L47.0676 0.741453L52.6522 9.77801L54.1193 7.44798L50.0263 0.729125L52.5659 0.741453L58.0643 9.6424L63.5257 0.716797L66.1146 0.729125C63.5873 4.83441 61.097 8.87805 58.6191 12.934H57.5095L55.3891 9.51912C54.6494 10.715 53.959 11.8245 53.2686 12.934H51.9618Z" fill="#FEFEFE"/>
<path d="M60.6289 12.9334L68.1368 0.740844L80.6622 0.728516L79.3677 2.75034L78.9362 2.73801H69.4559L64.3767 10.9979H74.2392L73.0434 12.9334H60.6289Z" fill="#FEFEFE"/>
<path d="M89.6875 12.934L97.1461 0.716797L99.7226 0.729125L93.386 11.0108H103.002L101.695 12.934H89.6875Z" fill="#FEFEFE"/>
<path d="M75.4609 12.934L78.8635 7.34936L82.6606 1.17294L82.9442 0.716797L85.4961 0.729125L79.1841 10.9985H88.7014L87.4686 12.934H75.4609Z" fill="#FEFEFE"/>
<path d="M67.9141 7.8176L69.0606 5.83276L77.2835 5.85742L76.0383 7.82993L67.9141 7.8176Z" fill="#FEFEFE"/>
</svg>
